{
    "asset" : {
        "generator" : "Khronos glTF Blender I/O v3.2.43",
        "version" : "2.0"
    },
    "scene" : 0,
    "scenes" : [
        {
            "name" : "Scene",
            "nodes" : [
                0,
                1
            ]
        }
    ],
    "nodes" : [
        {
            "mesh" : 0,
            "name" : "Cube",
            "scale" : [
                2,
                2,
                2
            ]
        },
        {
            "mesh" : 1,
            "name" : "Roots",
            "translation" : [
                0,
                -20,
                0
            ]
        }
    ],
    "materials" : [
        {
            "doubleSided" : true,
            "name" : "Room2Wood",
            "pbrMetallicRoughness" : {
                "baseColorTexture" : {
                    "index" : 0
                },
                "metallicFactor" : 0,
                "roughnessFactor" : 0.4000000059604645
            }
        },
        {
            "doubleSided" : true,
            "name" : "Room2Grass",
            "pbrMetallicRoughness" : {
                "baseColorTexture" : {
                    "index" : 1
                },
                "metallicFactor" : 0,
                "roughnessFactor" : 0.5
            }
        },
        {
            "doubleSided" : true,
            "name" : "Room2Rock",
            "pbrMetallicRoughness" : {
                "baseColorTexture" : {
                    "index" : 2
                },
                "metallicFactor" : 0,
                "roughnessFactor" : 0.5
            }
        },
        {
            "doubleSided" : true,
            "name" : "Room2Bark",
            "pbrMetallicRoughness" : {
                "baseColorTexture" : {
                    "index" : 3
                },
                "metallicFactor" : 0,
                "roughnessFactor" : 0.5
            }
        },
        {
            "doubleSided" : true,
            "name" : "Room2Roots",
            "pbrMetallicRoughness" : {
                "baseColorTexture" : {
                    "index" : 4
                },
                "metallicFactor" : 0,
                "roughnessFactor" : 0.5
            }
        }
    ],
    "meshes" : [
        {
            "name" : "Cube",
            "primitives" : [
                {
                    "attributes" : {
                        "POSITION" : 0,
                        "NORMAL" : 1,
                        "TEXCOORD_0" : 2
                    },
                    "indices" : 3,
                    "material" : 0
                },
                {
                    "attributes" : {
                        "POSITION" : 4,
                        "NORMAL" : 5,
                        "TEXCOORD_0" : 6
                    },
                    "indices" : 7,
                    "material" : 1
                },
                {
                    "attributes" : {
                        "POSITION" : 8,
                        "NORMAL" : 9,
                        "TEXCOORD_0" : 10
                    },
                    "indices" : 11,
                    "material" : 2
                },
                {
                    "attributes" : {
                        "POSITION" : 12,
                        "NORMAL" : 13,
                        "TEXCOORD_0" : 14
                    },
                    "indices" : 15,
                    "material" : 3
                }
            ]
        },
        {
            "name" : "Plane",
            "primitives" : [
                {
                    "attributes" : {
                        "POSITION" : 16,
                        "NORMAL" : 17,
                        "TEXCOORD_0" : 18
                    },
                    "indices" : 19,
                    "material" : 4
                }
            ]
        }
    ],
    "textures" : [
        {
            "sampler" : 0,
            "source" : 0
        },
        {
            "sampler" : 0,
            "source" : 1
        },
        {
            "sampler" : 0,
            "source" : 2
        },
        {
            "sampler" : 0,
            "source" : 3
        },
        {
            "sampler" : 0,
            "source" : 4
        }
    ],
    "images" : [
        {
            "bufferView" : 4,
            "mimeType" : "image/png",
            "name" : "wood_rustic_beam"
        },
        {
            "bufferView" : 9,
            "mimeType" : "image/png",
            "name" : "grass_02"
        },
        {
            "bufferView" : 14,
            "mimeType" : "image/png",
            "name" : "cobblestone"
        },
        {
            "bufferView" : 19,
            "mimeType" : "image/png",
            "name" : "bark_2"
        },
        {
            "bufferView" : 24,
            "mimeType" : "image/png",
            "name" : "branches"
        }
    ],
    "accessors" : [
        {
            "bufferView" : 0,
            "componentType" : 5126,
            "count" : 174,
            "max" : [
                6.176894187927246,
                24.140586853027344,
                15.5
            ],
            "min" : [
                -6.537266731262207,
                0,
                -9
            ],
            "type" : "VEC3"
        },
        {
            "bufferView" : 1,
            "componentType" : 5126,
            "count" : 174,
            "type" : "VEC3"
        },
        {
            "bufferView" : 2,
            "componentType" : 5126,
            "count" : 174,
            "type" : "VEC2"
        },
        {
            "bufferView" : 3,
            "componentType" : 5123,
            "count" : 312,
            "type" : "SCALAR"
        },
        {
            "bufferView" : 5,
            "componentType" : 5126,
            "count" : 151,
            "max" : [
                22.783395767211914,
                28,
                22.43453598022461
            ],
            "min" : [
                -25.783395767211914,
                0,
                -19.43453598022461
            ],
            "type" : "VEC3"
        },
        {
            "bufferView" : 6,
            "componentType" : 5126,
            "count" : 151,
            "type" : "VEC3"
        },
        {
            "bufferView" : 7,
            "componentType" : 5126,
            "count" : 151,
            "type" : "VEC2"
        },
        {
            "bufferView" : 8,
            "componentType" : 5123,
            "count" : 207,
            "type" : "SCALAR"
        },
        {
            "bufferView" : 10,
            "componentType" : 5126,
            "count" : 301,
            "max" : [
                22.783395767211914,
                43,
                22.43453598022461
            ],
            "min" : [
                -25.783395767211914,
                -200,
                -19.43453598022461
            ],
            "type" : "VEC3"
        },
        {
            "bufferView" : 11,
            "componentType" : 5126,
            "count" : 301,
            "type" : "VEC3"
        },
        {
            "bufferView" : 12,
            "componentType" : 5126,
            "count" : 301,
            "type" : "VEC2"
        },
        {
            "bufferView" : 13,
            "componentType" : 5123,
            "count" : 411,
            "type" : "SCALAR"
        },
        {
            "bufferView" : 15,
            "componentType" : 5126,
            "count" : 10710,
            "max" : [
                16.596698760986328,
                54,
                7
            ],
            "min" : [
                -7.000000476837158,
                0,
                -13.80367660522461
            ],
            "type" : "VEC3"
        },
        {
            "bufferView" : 16,
            "componentType" : 5126,
            "count" : 10710,
            "type" : "VEC3"
        },
        {
            "bufferView" : 17,
            "componentType" : 5126,
            "count" : 10710,
            "type" : "VEC2"
        },
        {
            "bufferView" : 18,
            "componentType" : 5123,
            "count" : 16062,
            "type" : "SCALAR"
        },
        {
            "bufferView" : 20,
            "componentType" : 5126,
            "count" : 6144,
            "max" : [
                20.123199462890625,
                2,
                21.02715301513672
            ],
            "min" : [
                -21.24636459350586,
                0,
                -19.818084716796875
            ],
            "type" : "VEC3"
        },
        {
            "bufferView" : 21,
            "componentType" : 5126,
            "count" : 6144,
            "type" : "VEC3"
        },
        {
            "bufferView" : 22,
            "componentType" : 5126,
            "count" : 6144,
            "type" : "VEC2"
        },
        {
            "bufferView" : 23,
            "componentType" : 5123,
            "count" : 9216,
            "type" : "SCALAR"
        }
    ],
    "bufferViews" : [
        {
            "buffer" : 0,
            "byteLength" : 2088,
            "byteOffset" : 0
        },
        {
            "buffer" : 0,
            "byteLength" : 2088,
            "byteOffset" : 2088
        },
        {
            "buffer" : 0,
            "byteLength" : 1392,
            "byteOffset" : 4176
        },
        {
            "buffer" : 0,
            "byteLength" : 624,
            "byteOffset" : 5568
        },
        {
            "buffer" : 0,
            "byteLength" : 19747,
            "byteOffset" : 6192
        },
        {
            "buffer" : 0,
            "byteLength" : 1812,
            "byteOffset" : 25940
        },
        {
            "buffer" : 0,
            "byteLength" : 1812,
            "byteOffset" : 27752
        },
        {
            "buffer" : 0,
            "byteLength" : 1208,
            "byteOffset" : 29564
        },
        {
            "buffer" : 0,
            "byteLength" : 414,
            "byteOffset" : 30772
        },
        {
            "buffer" : 0,
            "byteLength" : 19378,
            "byteOffset" : 31188
        },
        {
            "buffer" : 0,
            "byteLength" : 3612,
            "byteOffset" : 50568
        },
        {
            "buffer" : 0,
            "byteLength" : 3612,
            "byteOffset" : 54180
        },
        {
            "buffer" : 0,
            "byteLength" : 2408,
            "byteOffset" : 57792
        },
        {
            "buffer" : 0,
            "byteLength" : 822,
            "byteOffset" : 60200
        },
        {
            "buffer" : 0,
            "byteLength" : 15183,
            "byteOffset" : 61024
        },
        {
            "buffer" : 0,
            "byteLength" : 128520,
            "byteOffset" : 76208
        },
        {
            "buffer" : 0,
            "byteLength" : 128520,
            "byteOffset" : 204728
        },
        {
            "buffer" : 0,
            "byteLength" : 85680,
            "byteOffset" : 333248
        },
        {
            "buffer" : 0,
            "byteLength" : 32124,
            "byteOffset" : 418928
        },
        {
            "buffer" : 0,
            "byteLength" : 20466,
            "byteOffset" : 451052
        },
        {
            "buffer" : 0,
            "byteLength" : 73728,
            "byteOffset" : 471520
        },
        {
            "buffer" : 0,
            "byteLength" : 73728,
            "byteOffset" : 545248
        },
        {
            "buffer" : 0,
            "byteLength" : 49152,
            "byteOffset" : 618976
        },
        {
            "buffer" : 0,
            "byteLength" : 18432,
            "byteOffset" : 668128
        },
        {
            "buffer" : 0,
            "byteLength" : 16733,
            "byteOffset" : 686560
        }
    ],
    "samplers" : [
        {
            "magFilter" : 9729,
            "minFilter" : 9987
        }
    ],
    "buffers" : [
        {
            "byteLength" : 703296,
            "uri" : "data:application/octet-stream;base64,"
        }
    ]
}
