{
    "asset" : {
        "generator" : "Khronos glTF Blender I/O v3.2.43",
        "version" : "2.0"
    },
    "scene" : 0,
    "scenes" : [
        {
            "name" : "Scene",
            "nodes" : [
                0
            ]
        }
    ],
    "nodes" : [
        {
            "mesh" : 0,
            "name" : "Cube"
        }
    ],
    "materials" : [
        {
            "doubleSided" : true,
            "name" : "Room1Main",
            "pbrMetallicRoughness" : {
                "baseColorTexture" : {
                    "index" : 0
                },
                "metallicFactor" : 0
            }
        },
        {
            "doubleSided" : true,
            "name" : "Room1Brick",
            "pbrMetallicRoughness" : {
                "baseColorTexture" : {
                    "index" : 1
                },
                "metallicFactor" : 0
            }
        },
        {
            "doubleSided" : true,
            "name" : "Room1Grass",
            "pbrMetallicRoughness" : {
                "baseColorTexture" : {
                    "index" : 2
                },
                "metallicFactor" : 0
            }
        },
        {
            "doubleSided" : true,
            "name" : "Room1Sand",
            "pbrMetallicRoughness" : {
                "baseColorTexture" : {
                    "index" : 3
                },
                "metallicFactor" : 0
            }
        },
        {
            "doubleSided" : true,
            "name" : "Room1Obsidian",
            "pbrMetallicRoughness" : {
                "baseColorTexture" : {
                    "index" : 4
                },
                "metallicFactor" : 0,
                "roughnessFactor" : 0.5
            }
        },
        {
            "doubleSided" : true,
            "name" : "Room1MetalRoof",
            "pbrMetallicRoughness" : {
                "baseColorTexture" : {
                    "index" : 5
                },
                "metallicFactor" : 0,
                "roughnessFactor" : 0.5
            }
        },
        {
            "doubleSided" : true,
            "name" : "Room1BlackBrick",
            "pbrMetallicRoughness" : {
                "baseColorTexture" : {
                    "index" : 6
                },
                "metallicFactor" : 0,
                "roughnessFactor" : 0.5
            }
        }
    ],
    "meshes" : [
        {
            "name" : "Cube",
            "primitives" : [
                {
                    "attributes" : {
                        "POSITION" : 0,
                        "NORMAL" : 1,
                        "TEXCOORD_0" : 2
                    },
                    "indices" : 3,
                    "material" : 0
                },
                {
                    "attributes" : {
                        "POSITION" : 4,
                        "NORMAL" : 5,
                        "TEXCOORD_0" : 6
                    },
                    "indices" : 7,
                    "material" : 1
                },
                {
                    "attributes" : {
                        "POSITION" : 8,
                        "NORMAL" : 9,
                        "TEXCOORD_0" : 10
                    },
                    "indices" : 11,
                    "material" : 2
                },
                {
                    "attributes" : {
                        "POSITION" : 12,
                        "NORMAL" : 13,
                        "TEXCOORD_0" : 14
                    },
                    "indices" : 15,
                    "material" : 3
                },
                {
                    "attributes" : {
                        "POSITION" : 16,
                        "NORMAL" : 17,
                        "TEXCOORD_0" : 18
                    },
                    "indices" : 19,
                    "material" : 4
                },
                {
                    "attributes" : {
                        "POSITION" : 20,
                        "NORMAL" : 21,
                        "TEXCOORD_0" : 22
                    },
                    "indices" : 23,
                    "material" : 5
                },
                {
                    "attributes" : {
                        "POSITION" : 24,
                        "NORMAL" : 25,
                        "TEXCOORD_0" : 26
                    },
                    "indices" : 27,
                    "material" : 6
                }
            ]
        }
    ],
    "textures" : [
        {
            "sampler" : 0,
            "source" : 0
        },
        {
            "sampler" : 0,
            "source" : 1
        },
        {
            "sampler" : 0,
            "source" : 2
        },
        {
            "sampler" : 0,
            "source" : 3
        },
        {
            "sampler" : 0,
            "source" : 0
        },
        {
            "sampler" : 0,
            "source" : 4
        },
        {
            "sampler" : 0,
            "source" : 5
        }
    ],
    "images" : [
        {
            "bufferView" : 4,
            "mimeType" : "image/png",
            "name" : "rock_cliff"
        },
        {
            "bufferView" : 9,
            "mimeType" : "image/png",
            "name" : "brick_medium_mossy"
        },
        {
            "bufferView" : 14,
            "mimeType" : "image/png",
            "name" : "grass_02"
        },
        {
            "bufferView" : 19,
            "mimeType" : "image/png",
            "name" : "sand_02"
        },
        {
            "bufferView" : 28,
            "mimeType" : "image/jpeg",
            "name" : "TexturesCom_MetalPlatesZinc0012_1_seamless_S"
        },
        {
            "bufferView" : 33,
            "mimeType" : "image/png",
            "name" : "brick_medium_mossy_black"
        }
    ],
    "accessors" : [
        {
            "bufferView" : 0,
            "componentType" : 5126,
            "count" : 847,
            "max" : [
                21.151660919189453,
                91.61263275146484,
                15
            ],
            "min" : [
                -13.446686744689941,
                -10.38253402709961,
                -21.8237247467041
            ],
            "type" : "VEC3"
        },
        {
            "bufferView" : 1,
            "componentType" : 5126,
            "count" : 847,
            "type" : "VEC3"
        },
        {
            "bufferView" : 2,
            "componentType" : 5126,
            "count" : 847,
            "type" : "VEC2"
        },
        {
            "bufferView" : 3,
            "componentType" : 5123,
            "count" : 969,
            "type" : "SCALAR"
        },
        {
            "bufferView" : 5,
            "componentType" : 5126,
            "count" : 218,
            "max" : [
                14.266180038452148,
                91.11263275146484,
                12
            ],
            "min" : [
                -10,
                14,
                -18
            ],
            "type" : "VEC3"
        },
        {
            "bufferView" : 6,
            "componentType" : 5126,
            "count" : 218,
            "type" : "VEC3"
        },
        {
            "bufferView" : 7,
            "componentType" : 5126,
            "count" : 218,
            "type" : "VEC2"
        },
        {
            "bufferView" : 8,
            "componentType" : 5123,
            "count" : 336,
            "type" : "SCALAR"
        },
        {
            "bufferView" : 10,
            "componentType" : 5126,
            "count" : 448,
            "max" : [
                21.151660919189453,
                91.61263275146484,
                15
            ],
            "min" : [
                -13.446686744689941,
                -2.773897409439087,
                -21.8237247467041
            ],
            "type" : "VEC3"
        },
        {
            "bufferView" : 11,
            "componentType" : 5126,
            "count" : 448,
            "type" : "VEC3"
        },
        {
            "bufferView" : 12,
            "componentType" : 5126,
            "count" : 448,
            "type" : "VEC2"
        },
        {
            "bufferView" : 13,
            "componentType" : 5123,
            "count" : 504,
            "type" : "SCALAR"
        },
        {
            "bufferView" : 15,
            "componentType" : 5126,
            "count" : 33,
            "max" : [
                17.185562133789062,
                57.22623062133789,
                9.562601089477539
            ],
            "min" : [
                -12,
                -10.38253402709961,
                -17.552297592163086
            ],
            "type" : "VEC3"
        },
        {
            "bufferView" : 16,
            "componentType" : 5126,
            "count" : 33,
            "type" : "VEC3"
        },
        {
            "bufferView" : 17,
            "componentType" : 5126,
            "count" : 33,
            "type" : "VEC2"
        },
        {
            "bufferView" : 18,
            "componentType" : 5123,
            "count" : 33,
            "type" : "SCALAR"
        },
        {
            "bufferView" : 20,
            "componentType" : 5126,
            "count" : 133,
            "max" : [
                15,
                -20,
                15
            ],
            "min" : [
                -15,
                -230,
                -15
            ],
            "type" : "VEC3"
        },
        {
            "bufferView" : 21,
            "componentType" : 5126,
            "count" : 133,
            "type" : "VEC3"
        },
        {
            "bufferView" : 22,
            "componentType" : 5126,
            "count" : 133,
            "type" : "VEC2"
        },
        {
            "bufferView" : 23,
            "componentType" : 5123,
            "count" : 222,
            "type" : "SCALAR"
        },
        {
            "bufferView" : 24,
            "componentType" : 5126,
            "count" : 32,
            "max" : [
                8,
                91.31262969970703,
                12.199999809265137
            ],
            "min" : [
                1,
                90.51263427734375,
                6.800000190734863
            ],
            "type" : "VEC3"
        },
        {
            "bufferView" : 25,
            "componentType" : 5126,
            "count" : 32,
            "type" : "VEC3"
        },
        {
            "bufferView" : 26,
            "componentType" : 5126,
            "count" : 32,
            "type" : "VEC2"
        },
        {
            "bufferView" : 27,
            "componentType" : 5123,
            "count" : 48,
            "type" : "SCALAR"
        },
        {
            "bufferView" : 29,
            "componentType" : 5126,
            "count" : 86,
            "max" : [
                6.5,
                90.11263275146484,
                11.5
            ],
            "min" : [
                2.5,
                88.11263275146484,
                7.5
            ],
            "type" : "VEC3"
        },
        {
            "bufferView" : 30,
            "componentType" : 5126,
            "count" : 86,
            "type" : "VEC3"
        },
        {
            "bufferView" : 31,
            "componentType" : 5126,
            "count" : 86,
            "type" : "VEC2"
        },
        {
            "bufferView" : 32,
            "componentType" : 5123,
            "count" : 174,
            "type" : "SCALAR"
        }
    ],
    "bufferViews" : [
        {
            "buffer" : 0,
            "byteLength" : 10164,
            "byteOffset" : 0
        },
        {
            "buffer" : 0,
            "byteLength" : 10164,
            "byteOffset" : 10164
        },
        {
            "buffer" : 0,
            "byteLength" : 6776,
            "byteOffset" : 20328
        },
        {
            "buffer" : 0,
            "byteLength" : 1938,
            "byteOffset" : 27104
        },
        {
            "buffer" : 0,
            "byteLength" : 54301,
            "byteOffset" : 29044
        },
        {
            "buffer" : 0,
            "byteLength" : 2616,
            "byteOffset" : 83348
        },
        {
            "buffer" : 0,
            "byteLength" : 2616,
            "byteOffset" : 85964
        },
        {
            "buffer" : 0,
            "byteLength" : 1744,
            "byteOffset" : 88580
        },
        {
            "buffer" : 0,
            "byteLength" : 672,
            "byteOffset" : 90324
        },
        {
            "buffer" : 0,
            "byteLength" : 52407,
            "byteOffset" : 90996
        },
        {
            "buffer" : 0,
            "byteLength" : 5376,
            "byteOffset" : 143404
        },
        {
            "buffer" : 0,
            "byteLength" : 5376,
            "byteOffset" : 148780
        },
        {
            "buffer" : 0,
            "byteLength" : 3584,
            "byteOffset" : 154156
        },
        {
            "buffer" : 0,
            "byteLength" : 1008,
            "byteOffset" : 157740
        },
        {
            "buffer" : 0,
            "byteLength" : 19378,
            "byteOffset" : 158748
        },
        {
            "buffer" : 0,
            "byteLength" : 396,
            "byteOffset" : 178128
        },
        {
            "buffer" : 0,
            "byteLength" : 396,
            "byteOffset" : 178524
        },
        {
            "buffer" : 0,
            "byteLength" : 264,
            "byteOffset" : 178920
        },
        {
            "buffer" : 0,
            "byteLength" : 66,
            "byteOffset" : 179184
        },
        {
            "buffer" : 0,
            "byteLength" : 34196,
            "byteOffset" : 179252
        },
        {
            "buffer" : 0,
            "byteLength" : 1596,
            "byteOffset" : 213448
        },
        {
            "buffer" : 0,
            "byteLength" : 1596,
            "byteOffset" : 215044
        },
        {
            "buffer" : 0,
            "byteLength" : 1064,
            "byteOffset" : 216640
        },
        {
            "buffer" : 0,
            "byteLength" : 444,
            "byteOffset" : 217704
        },
        {
            "buffer" : 0,
            "byteLength" : 384,
            "byteOffset" : 218148
        },
        {
            "buffer" : 0,
            "byteLength" : 384,
            "byteOffset" : 218532
        },
        {
            "buffer" : 0,
            "byteLength" : 256,
            "byteOffset" : 218916
        },
        {
            "buffer" : 0,
            "byteLength" : 96,
            "byteOffset" : 219172
        },
        {
            "buffer" : 0,
            "byteLength" : 9956,
            "byteOffset" : 219268
        },
        {
            "buffer" : 0,
            "byteLength" : 1032,
            "byteOffset" : 229224
        },
        {
            "buffer" : 0,
            "byteLength" : 1032,
            "byteOffset" : 230256
        },
        {
            "buffer" : 0,
            "byteLength" : 688,
            "byteOffset" : 231288
        },
        {
            "buffer" : 0,
            "byteLength" : 348,
            "byteOffset" : 231976
        },
        {
            "buffer" : 0,
            "byteLength" : 43055,
            "byteOffset" : 232324
        }
    ],
    "samplers" : [
        {
            "magFilter" : 9729,
            "minFilter" : 9987
        }
    ],
    "buffers" : [
        {
            "byteLength" : 275380,
            "uri" : "data:application/octet-stream;base64,"
        }
    ]
}
