{
    "asset" : {
        "generator" : "Khronos glTF Blender I/O v3.2.43",
        "version" : "2.0"
    },
    "scene" : 0,
    "scenes" : [
        {
            "name" : "Scene",
            "nodes" : [
                0,
                1,
                2
            ]
        }
    ],
    "nodes" : [
        {
            "mesh" : 0,
            "name" : "Cube"
        },
        {
            "mesh" : 1,
            "name" : "Plants"
        },
        {
            "mesh" : 2,
            "name" : "Platform",
            "translation" : [
                0,
                40,
                0
            ]
        }
    ],
    "materials" : [
        {
            "doubleSided" : true,
            "name" : "Room3Cat1",
            "pbrMetallicRoughness" : {
                "baseColorTexture" : {
                    "index" : 0
                },
                "metallicFactor" : 0,
                "roughnessFactor" : 0.4000000059604645
            }
        },
        {
            "doubleSided" : true,
            "name" : "Room3cat2",
            "pbrMetallicRoughness" : {
                "baseColorTexture" : {
                    "index" : 1
                },
                "metallicFactor" : 0,
                "roughnessFactor" : 0.5
            }
        },
        {
            "doubleSided" : true,
            "name" : "Room3Stone",
            "pbrMetallicRoughness" : {
                "baseColorTexture" : {
                    "index" : 2
                },
                "metallicFactor" : 0,
                "roughnessFactor" : 0.5
            }
        },
        {
            "doubleSided" : true,
            "name" : "Room3Wall",
            "pbrMetallicRoughness" : {
                "baseColorTexture" : {
                    "index" : 3
                },
                "metallicFactor" : 0,
                "roughnessFactor" : 0.5
            }
        },
        {
            "doubleSided" : true,
            "name" : "Room3Brick",
            "pbrMetallicRoughness" : {
                "baseColorTexture" : {
                    "index" : 4
                },
                "metallicFactor" : 0,
                "roughnessFactor" : 0.5
            }
        },
        {
            "doubleSided" : true,
            "name" : "Room3Grass",
            "pbrMetallicRoughness" : {
                "baseColorTexture" : {
                    "index" : 5
                },
                "metallicFactor" : 0,
                "roughnessFactor" : 0.5
            }
        },
        {
            "doubleSided" : true,
            "name" : "Room3PlantsGrass",
            "pbrMetallicRoughness" : {
                "baseColorTexture" : {
                    "index" : 6
                },
                "metallicFactor" : 0,
                "roughnessFactor" : 0.5
            }
        },
        {
            "doubleSided" : true,
            "name" : "Room3Clear",
            "pbrMetallicRoughness" : {
                "baseColorTexture" : {
                    "index" : 7
                },
                "metallicFactor" : 0,
                "roughnessFactor" : 0.5
            }
        }
    ],
    "meshes" : [
        {
            "name" : "Cube",
            "primitives" : [
                {
                    "attributes" : {
                        "POSITION" : 0,
                        "NORMAL" : 1,
                        "TEXCOORD_0" : 2
                    },
                    "indices" : 3,
                    "material" : 0
                },
                {
                    "attributes" : {
                        "POSITION" : 4,
                        "NORMAL" : 5,
                        "TEXCOORD_0" : 6
                    },
                    "indices" : 7,
                    "material" : 1
                },
                {
                    "attributes" : {
                        "POSITION" : 8,
                        "NORMAL" : 9,
                        "TEXCOORD_0" : 10
                    },
                    "indices" : 11,
                    "material" : 2
                },
                {
                    "attributes" : {
                        "POSITION" : 12,
                        "NORMAL" : 13,
                        "TEXCOORD_0" : 14
                    },
                    "indices" : 15,
                    "material" : 3
                },
                {
                    "attributes" : {
                        "POSITION" : 16,
                        "NORMAL" : 17,
                        "TEXCOORD_0" : 18
                    },
                    "indices" : 19,
                    "material" : 4
                },
                {
                    "attributes" : {
                        "POSITION" : 20,
                        "NORMAL" : 21,
                        "TEXCOORD_0" : 22
                    },
                    "indices" : 23,
                    "material" : 5
                }
            ]
        },
        {
            "name" : "Cube.001",
            "primitives" : [
                {
                    "attributes" : {
                        "POSITION" : 24,
                        "NORMAL" : 25,
                        "TEXCOORD_0" : 26
                    },
                    "indices" : 27,
                    "material" : 6
                }
            ]
        },
        {
            "name" : "Plane",
            "primitives" : [
                {
                    "attributes" : {
                        "POSITION" : 28,
                        "NORMAL" : 29,
                        "TEXCOORD_0" : 30
                    },
                    "indices" : 31,
                    "material" : 7
                }
            ]
        }
    ],
    "textures" : [
        {
            "sampler" : 0,
            "source" : 0
        },
        {
            "sampler" : 0,
            "source" : 1
        },
        {
            "sampler" : 0,
            "source" : 2
        },
        {
            "sampler" : 0,
            "source" : 3
        },
        {
            "sampler" : 0,
            "source" : 4
        },
        {
            "sampler" : 0,
            "source" : 5
        },
        {
            "sampler" : 0,
            "source" : 6
        },
        {
            "sampler" : 0,
            "source" : 7
        }
    ],
    "images" : [
        {
            "bufferView" : 4,
            "mimeType" : "image/jpeg",
            "name" : "1"
        },
        {
            "bufferView" : 9,
            "mimeType" : "image/jpeg",
            "name" : "2"
        },
        {
            "bufferView" : 14,
            "mimeType" : "image/png",
            "name" : "rock_wall_2"
        },
        {
            "bufferView" : 19,
            "mimeType" : "image/png",
            "name" : "wall_plaster_worn_3"
        },
        {
            "bufferView" : 24,
            "mimeType" : "image/png",
            "name" : "brick_large_gray"
        },
        {
            "bufferView" : 29,
            "mimeType" : "image/png",
            "name" : "grass_02"
        },
        {
            "bufferView" : 34,
            "mimeType" : "image/png",
            "name" : "grass_2"
        },
        {
            "bufferView" : 39,
            "mimeType" : "image/png",
            "name" : "CBTI3022"
        }
    ],
    "accessors" : [
        {
            "bufferView" : 0,
            "componentType" : 5126,
            "count" : 88,
            "max" : [
                7.93062686920166,
                40,
                8.016639709472656
            ],
            "min" : [
                -7.936832427978516,
                -0.001539468765258789,
                -14.000000953674316
            ],
            "type" : "VEC3"
        },
        {
            "bufferView" : 1,
            "componentType" : 5126,
            "count" : 88,
            "type" : "VEC3"
        },
        {
            "bufferView" : 2,
            "componentType" : 5126,
            "count" : 88,
            "type" : "VEC2"
        },
        {
            "bufferView" : 3,
            "componentType" : 5123,
            "count" : 168,
            "type" : "SCALAR"
        },
        {
            "bufferView" : 5,
            "componentType" : 5126,
            "count" : 144,
            "max" : [
                12.324159622192383,
                40,
                7.982895374298096
            ],
            "min" : [
                -12.324156761169434,
                0,
                -13.414216995239258
            ],
            "type" : "VEC3"
        },
        {
            "bufferView" : 6,
            "componentType" : 5126,
            "count" : 144,
            "type" : "VEC3"
        },
        {
            "bufferView" : 7,
            "componentType" : 5126,
            "count" : 144,
            "type" : "VEC2"
        },
        {
            "bufferView" : 8,
            "componentType" : 5123,
            "count" : 216,
            "type" : "SCALAR"
        },
        {
            "bufferView" : 10,
            "componentType" : 5126,
            "count" : 64,
            "max" : [
                12.375197410583496,
                40,
                7.982893943786621
            ],
            "min" : [
                -12.37519359588623,
                0,
                4.017106056213379
            ],
            "type" : "VEC3"
        },
        {
            "bufferView" : 11,
            "componentType" : 5126,
            "count" : 64,
            "type" : "VEC3"
        },
        {
            "bufferView" : 12,
            "componentType" : 5126,
            "count" : 64,
            "type" : "VEC2"
        },
        {
            "bufferView" : 13,
            "componentType" : 5123,
            "count" : 132,
            "type" : "SCALAR"
        },
        {
            "bufferView" : 15,
            "componentType" : 5126,
            "count" : 72,
            "max" : [
                35.59897994995117,
                30,
                30.829620361328125
            ],
            "min" : [
                -35.59897994995117,
                0,
                -30.829620361328125
            ],
            "type" : "VEC3"
        },
        {
            "bufferView" : 16,
            "componentType" : 5126,
            "count" : 72,
            "type" : "VEC3"
        },
        {
            "bufferView" : 17,
            "componentType" : 5126,
            "count" : 72,
            "type" : "VEC2"
        },
        {
            "bufferView" : 18,
            "componentType" : 5123,
            "count" : 108,
            "type" : "SCALAR"
        },
        {
            "bufferView" : 20,
            "componentType" : 5126,
            "count" : 100,
            "max" : [
                7.93062686920166,
                1.0007697343826294,
                8.016639709472656
            ],
            "min" : [
                -7.936832427978516,
                -0.001539468765258789,
                -7.080112457275391
            ],
            "type" : "VEC3"
        },
        {
            "bufferView" : 21,
            "componentType" : 5126,
            "count" : 100,
            "type" : "VEC3"
        },
        {
            "bufferView" : 22,
            "componentType" : 5126,
            "count" : 100,
            "type" : "VEC2"
        },
        {
            "bufferView" : 23,
            "componentType" : 5123,
            "count" : 150,
            "type" : "SCALAR"
        },
        {
            "bufferView" : 25,
            "componentType" : 5126,
            "count" : 6,
            "max" : [
                14.832907676696777,
                0,
                12.845674514770508
            ],
            "min" : [
                -14.832907676696777,
                0,
                -12.845674514770508
            ],
            "type" : "VEC3"
        },
        {
            "bufferView" : 26,
            "componentType" : 5126,
            "count" : 6,
            "type" : "VEC3"
        },
        {
            "bufferView" : 27,
            "componentType" : 5126,
            "count" : 6,
            "type" : "VEC2"
        },
        {
            "bufferView" : 28,
            "componentType" : 5123,
            "count" : 12,
            "type" : "SCALAR"
        },
        {
            "bufferView" : 30,
            "componentType" : 5126,
            "count" : 29196,
            "max" : [
                32.71452331542969,
                1,
                18.591169357299805
            ],
            "min" : [
                -20.819072723388672,
                0,
                -19.274173736572266
            ],
            "type" : "VEC3"
        },
        {
            "bufferView" : 31,
            "componentType" : 5126,
            "count" : 29196,
            "type" : "VEC3"
        },
        {
            "bufferView" : 32,
            "componentType" : 5126,
            "count" : 29196,
            "type" : "VEC2"
        },
        {
            "bufferView" : 33,
            "componentType" : 5123,
            "count" : 43794,
            "type" : "SCALAR"
        },
        {
            "bufferView" : 35,
            "componentType" : 5126,
            "count" : 30,
            "max" : [
                23,
                0,
                20
            ],
            "min" : [
                -23,
                -10,
                -20
            ],
            "type" : "VEC3"
        },
        {
            "bufferView" : 36,
            "componentType" : 5126,
            "count" : 30,
            "type" : "VEC3"
        },
        {
            "bufferView" : 37,
            "componentType" : 5126,
            "count" : 30,
            "type" : "VEC2"
        },
        {
            "bufferView" : 38,
            "componentType" : 5123,
            "count" : 48,
            "type" : "SCALAR"
        }
    ],
    "bufferViews" : [
        {
            "buffer" : 0,
            "byteLength" : 1056,
            "byteOffset" : 0
        },
        {
            "buffer" : 0,
            "byteLength" : 1056,
            "byteOffset" : 1056
        },
        {
            "buffer" : 0,
            "byteLength" : 704,
            "byteOffset" : 2112
        },
        {
            "buffer" : 0,
            "byteLength" : 336,
            "byteOffset" : 2816
        },
        {
            "buffer" : 0,
            "byteLength" : 224040,
            "byteOffset" : 3152
        },
        {
            "buffer" : 0,
            "byteLength" : 1728,
            "byteOffset" : 227192
        },
        {
            "buffer" : 0,
            "byteLength" : 1728,
            "byteOffset" : 228920
        },
        {
            "buffer" : 0,
            "byteLength" : 1152,
            "byteOffset" : 230648
        },
        {
            "buffer" : 0,
            "byteLength" : 432,
            "byteOffset" : 231800
        },
        {
            "buffer" : 0,
            "byteLength" : 117877,
            "byteOffset" : 232232
        },
        {
            "buffer" : 0,
            "byteLength" : 768,
            "byteOffset" : 350112
        },
        {
            "buffer" : 0,
            "byteLength" : 768,
            "byteOffset" : 350880
        },
        {
            "buffer" : 0,
            "byteLength" : 512,
            "byteOffset" : 351648
        },
        {
            "buffer" : 0,
            "byteLength" : 264,
            "byteOffset" : 352160
        },
        {
            "buffer" : 0,
            "byteLength" : 19838,
            "byteOffset" : 352424
        },
        {
            "buffer" : 0,
            "byteLength" : 864,
            "byteOffset" : 372264
        },
        {
            "buffer" : 0,
            "byteLength" : 864,
            "byteOffset" : 373128
        },
        {
            "buffer" : 0,
            "byteLength" : 576,
            "byteOffset" : 373992
        },
        {
            "buffer" : 0,
            "byteLength" : 216,
            "byteOffset" : 374568
        },
        {
            "buffer" : 0,
            "byteLength" : 35566,
            "byteOffset" : 374784
        },
        {
            "buffer" : 0,
            "byteLength" : 1200,
            "byteOffset" : 410352
        },
        {
            "buffer" : 0,
            "byteLength" : 1200,
            "byteOffset" : 411552
        },
        {
            "buffer" : 0,
            "byteLength" : 800,
            "byteOffset" : 412752
        },
        {
            "buffer" : 0,
            "byteLength" : 300,
            "byteOffset" : 413552
        },
        {
            "buffer" : 0,
            "byteLength" : 32141,
            "byteOffset" : 413852
        },
        {
            "buffer" : 0,
            "byteLength" : 72,
            "byteOffset" : 445996
        },
        {
            "buffer" : 0,
            "byteLength" : 72,
            "byteOffset" : 446068
        },
        {
            "buffer" : 0,
            "byteLength" : 48,
            "byteOffset" : 446140
        },
        {
            "buffer" : 0,
            "byteLength" : 24,
            "byteOffset" : 446188
        },
        {
            "buffer" : 0,
            "byteLength" : 19378,
            "byteOffset" : 446212
        },
        {
            "buffer" : 0,
            "byteLength" : 350352,
            "byteOffset" : 465592
        },
        {
            "buffer" : 0,
            "byteLength" : 350352,
            "byteOffset" : 815944
        },
        {
            "buffer" : 0,
            "byteLength" : 233568,
            "byteOffset" : 1166296
        },
        {
            "buffer" : 0,
            "byteLength" : 87588,
            "byteOffset" : 1399864
        },
        {
            "buffer" : 0,
            "byteLength" : 15349,
            "byteOffset" : 1487452
        },
        {
            "buffer" : 0,
            "byteLength" : 360,
            "byteOffset" : 1502804
        },
        {
            "buffer" : 0,
            "byteLength" : 360,
            "byteOffset" : 1503164
        },
        {
            "buffer" : 0,
            "byteLength" : 240,
            "byteOffset" : 1503524
        },
        {
            "buffer" : 0,
            "byteLength" : 96,
            "byteOffset" : 1503764
        },
        {
            "buffer" : 0,
            "byteLength" : 18324,
            "byteOffset" : 1503860
        }
    ],
    "samplers" : [
        {
            "magFilter" : 9729,
            "minFilter" : 9987
        }
    ],
    "buffers" : [
        {
            "byteLength" : 1522184,
            "uri" : "data:application/octet-stream;base64,"
        }
    ]
}
