{
    "asset" : {
        "generator" : "Khronos glTF Blender I/O v3.2.43",
        "version" : "2.0"
    },
    "scene" : 0,
    "scenes" : [
        {
            "name" : "Scene",
            "nodes" : [
                0,
                1,
                2,
                3,
                4
            ]
        }
    ],
    "nodes" : [
        {
            "mesh" : 0,
            "name" : "Cube"
        },
        {
            "mesh" : 1,
            "name" : "Stairs"
        },
        {
            "mesh" : 2,
            "name" : "Metal Grait",
            "rotation" : [
                -0.39284747838974,
                -0.3928474485874176,
                0.5879378318786621,
                0.5879378318786621
            ],
            "translation" : [
                -2.4051122665405273,
                -10.777975082397461,
                -3.2803168296813965
            ]
        },
        {
            "mesh" : 3,
            "name" : "Speakers",
            "rotation" : [
                -0.39284747838974,
                -0.3928474485874176,
                0.5879378318786621,
                0.5879378318786621
            ],
            "translation" : [
                -2.4051122665405273,
                -10.777975082397461,
                -3.2803168296813965
            ]
        },
        {
            "mesh" : 4,
            "name" : "Chains"
        }
    ],
    "materials" : [
        {
            "doubleSided" : true,
            "name" : "Concrete",
            "pbrMetallicRoughness" : {
                "baseColorTexture" : {
                    "index" : 0
                },
                "metallicFactor" : 0,
                "roughnessFactor" : 0.4000000059604645
            }
        },
        {
            "doubleSided" : true,
            "name" : "Concrete.001",
            "pbrMetallicRoughness" : {
                "baseColorTexture" : {
                    "index" : 1
                },
                "metallicFactor" : 0,
                "roughnessFactor" : 0.4000000059604645
            }
        },
        {
            "doubleSided" : true,
            "name" : "MetalBar",
            "pbrMetallicRoughness" : {
                "baseColorTexture" : {
                    "index" : 2
                },
                "metallicFactor" : 0,
                "roughnessFactor" : 0.5
            }
        },
        {
            "doubleSided" : true,
            "name" : "MetalGrait",
            "pbrMetallicRoughness" : {
                "baseColorTexture" : {
                    "index" : 3
                },
                "metallicFactor" : 0,
                "roughnessFactor" : 0.5
            }
        },
        {
            "doubleSided" : true,
            "name" : "Room5Black",
            "pbrMetallicRoughness" : {
                "baseColorTexture" : {
                    "index" : 4
                },
                "metallicFactor" : 0,
                "roughnessFactor" : 0.5
            }
        },
        {
            "doubleSided" : true,
            "name" : "MetalBar.001",
            "pbrMetallicRoughness" : {
                "baseColorTexture" : {
                    "index" : 5
                },
                "metallicFactor" : 0,
                "roughnessFactor" : 0.5
            }
        },
        {
            "doubleSided" : true,
            "name" : "MetalGrait.001",
            "pbrMetallicRoughness" : {
                "baseColorTexture" : {
                    "index" : 6
                },
                "metallicFactor" : 0,
                "roughnessFactor" : 0.5
            }
        },
        {
            "doubleSided" : true,
            "name" : "Room5Chains",
            "pbrMetallicRoughness" : {
                "baseColorTexture" : {
                    "index" : 7
                },
                "metallicFactor" : 0,
                "roughnessFactor" : 0.5
            }
        }
    ],
    "meshes" : [
        {
            "name" : "Cube",
            "primitives" : [
                {
                    "attributes" : {
                        "POSITION" : 0,
                        "NORMAL" : 1,
                        "TEXCOORD_0" : 2
                    },
                    "indices" : 3,
                    "material" : 0
                }
            ]
        },
        {
            "name" : "Cube.003",
            "primitives" : [
                {
                    "attributes" : {
                        "POSITION" : 4,
                        "NORMAL" : 5,
                        "TEXCOORD_0" : 6
                    },
                    "indices" : 7,
                    "material" : 1
                }
            ]
        },
        {
            "name" : "Cube.001",
            "primitives" : [
                {
                    "attributes" : {
                        "POSITION" : 8,
                        "NORMAL" : 9,
                        "TEXCOORD_0" : 10
                    },
                    "indices" : 11,
                    "material" : 2
                },
                {
                    "attributes" : {
                        "POSITION" : 12,
                        "NORMAL" : 13,
                        "TEXCOORD_0" : 14
                    },
                    "indices" : 15,
                    "material" : 3
                },
                {
                    "attributes" : {
                        "POSITION" : 16,
                        "NORMAL" : 17,
                        "TEXCOORD_0" : 18
                    },
                    "indices" : 19,
                    "material" : 4
                }
            ]
        },
        {
            "name" : "Cube.002",
            "primitives" : [
                {
                    "attributes" : {
                        "POSITION" : 20,
                        "NORMAL" : 21,
                        "TEXCOORD_0" : 22
                    },
                    "indices" : 23,
                    "material" : 5
                },
                {
                    "attributes" : {
                        "POSITION" : 24,
                        "NORMAL" : 25,
                        "TEXCOORD_0" : 26
                    },
                    "indices" : 27,
                    "material" : 6
                }
            ]
        },
        {
            "name" : "Cube.006",
            "primitives" : [
                {
                    "attributes" : {
                        "POSITION" : 28,
                        "NORMAL" : 29,
                        "TEXCOORD_0" : 30
                    },
                    "indices" : 31,
                    "material" : 7
                }
            ]
        }
    ],
    "textures" : [
        {
            "sampler" : 0,
            "source" : 0
        },
        {
            "sampler" : 0,
            "source" : 0
        },
        {
            "sampler" : 0,
            "source" : 1
        },
        {
            "sampler" : 0,
            "source" : 2
        },
        {
            "sampler" : 0,
            "source" : 3
        },
        {
            "sampler" : 0,
            "source" : 1
        },
        {
            "sampler" : 0,
            "source" : 2
        },
        {
            "sampler" : 0,
            "source" : 4
        }
    ],
    "images" : [
        {
            "bufferView" : 4,
            "mimeType" : "image/jpeg",
            "name" : "concrete_floor_2"
        },
        {
            "bufferView" : 13,
            "mimeType" : "image/png",
            "name" : "guard_rail"
        },
        {
            "bufferView" : 18,
            "mimeType" : "image/png",
            "name" : "Grait"
        },
        {
            "bufferView" : 23,
            "mimeType" : "image/jpeg",
            "name" : "concrete_floor_2_fade"
        },
        {
            "bufferView" : 36,
            "mimeType" : "image/png",
            "name" : "metal_rusty_dark_2"
        }
    ],
    "accessors" : [
        {
            "bufferView" : 0,
            "componentType" : 5126,
            "count" : 1585,
            "max" : [
                54.999996185302734,
                80,
                55
            ],
            "min" : [
                -55.000003814697266,
                -20,
                -55
            ],
            "type" : "VEC3"
        },
        {
            "bufferView" : 1,
            "componentType" : 5126,
            "count" : 1585,
            "type" : "VEC3"
        },
        {
            "bufferView" : 2,
            "componentType" : 5126,
            "count" : 1585,
            "type" : "VEC2"
        },
        {
            "bufferView" : 3,
            "componentType" : 5123,
            "count" : 2610,
            "type" : "SCALAR"
        },
        {
            "bufferView" : 5,
            "componentType" : 5126,
            "count" : 500,
            "max" : [
                -2.9999990463256836,
                0.10000000149011612,
                11
            ],
            "min" : [
                -10.999998092651367,
                -24.5,
                2.9999992847442627
            ],
            "type" : "VEC3"
        },
        {
            "bufferView" : 6,
            "componentType" : 5126,
            "count" : 500,
            "type" : "VEC3"
        },
        {
            "bufferView" : 7,
            "componentType" : 5126,
            "count" : 500,
            "type" : "VEC2"
        },
        {
            "bufferView" : 8,
            "componentType" : 5123,
            "count" : 606,
            "type" : "SCALAR"
        },
        {
            "bufferView" : 9,
            "componentType" : 5126,
            "count" : 240,
            "max" : [
                10.977974891662598,
                -0.25549352169036865,
                2.7288107872009277
            ],
            "min" : [
                -9.622024536132812,
                -7.646535873413086,
                -4.662230491638184
            ],
            "type" : "VEC3"
        },
        {
            "bufferView" : 10,
            "componentType" : 5126,
            "count" : 240,
            "type" : "VEC3"
        },
        {
            "bufferView" : 11,
            "componentType" : 5126,
            "count" : 240,
            "type" : "VEC2"
        },
        {
            "bufferView" : 12,
            "componentType" : 5123,
            "count" : 360,
            "type" : "SCALAR"
        },
        {
            "bufferView" : 14,
            "componentType" : 5126,
            "count" : 16,
            "max" : [
                10.777975082397461,
                -0.6989555358886719,
                2.285348892211914
            ],
            "min" : [
                -9.422024726867676,
                -7.203073978424072,
                -4.21876859664917
            ],
            "type" : "VEC3"
        },
        {
            "bufferView" : 15,
            "componentType" : 5126,
            "count" : 16,
            "type" : "VEC3"
        },
        {
            "bufferView" : 16,
            "componentType" : 5126,
            "count" : 16,
            "type" : "VEC2"
        },
        {
            "bufferView" : 17,
            "componentType" : 5123,
            "count" : 36,
            "type" : "SCALAR"
        },
        {
            "bufferView" : 19,
            "componentType" : 5126,
            "count" : 40,
            "max" : [
                -9.622024536132812,
                -0.255494087934494,
                2.728809356689453
            ],
            "min" : [
                -10.222023963928223,
                -7.646535873413086,
                -4.662230491638184
            ],
            "type" : "VEC3"
        },
        {
            "bufferView" : 20,
            "componentType" : 5126,
            "count" : 40,
            "type" : "VEC3"
        },
        {
            "bufferView" : 21,
            "componentType" : 5126,
            "count" : 40,
            "type" : "VEC2"
        },
        {
            "bufferView" : 22,
            "componentType" : 5123,
            "count" : 66,
            "type" : "SCALAR"
        },
        {
            "bufferView" : 24,
            "componentType" : 5126,
            "count" : 192,
            "max" : [
                25.54265785217285,
                67.7564697265625,
                70.74075317382812
            ],
            "min" : [
                24.733264923095703,
                -75.65847778320312,
                -72.6741714477539
            ],
            "type" : "VEC3"
        },
        {
            "bufferView" : 25,
            "componentType" : 5126,
            "count" : 192,
            "type" : "VEC3"
        },
        {
            "bufferView" : 26,
            "componentType" : 5126,
            "count" : 192,
            "type" : "VEC2"
        },
        {
            "bufferView" : 27,
            "componentType" : 5123,
            "count" : 288,
            "type" : "SCALAR"
        },
        {
            "bufferView" : 28,
            "componentType" : 5126,
            "count" : 80,
            "max" : [
                25.54265785217285,
                67.7564697265625,
                70.74075317382812
            ],
            "min" : [
                25.041410446166992,
                -75.65847778320312,
                -72.6741714477539
            ],
            "type" : "VEC3"
        },
        {
            "bufferView" : 29,
            "componentType" : 5126,
            "count" : 80,
            "type" : "VEC3"
        },
        {
            "bufferView" : 30,
            "componentType" : 5126,
            "count" : 80,
            "type" : "VEC2"
        },
        {
            "bufferView" : 31,
            "componentType" : 5123,
            "count" : 120,
            "type" : "SCALAR"
        },
        {
            "bufferView" : 32,
            "componentType" : 5126,
            "count" : 15044,
            "max" : [
                56.80001449584961,
                33.707115173339844,
                56.80000305175781
            ],
            "min" : [
                -56.80000686645508,
                31,
                -56.800010681152344
            ],
            "type" : "VEC3"
        },
        {
            "bufferView" : 33,
            "componentType" : 5126,
            "count" : 15044,
            "type" : "VEC3"
        },
        {
            "bufferView" : 34,
            "componentType" : 5126,
            "count" : 15044,
            "type" : "VEC2"
        },
        {
            "bufferView" : 35,
            "componentType" : 5123,
            "count" : 23268,
            "type" : "SCALAR"
        }
    ],
    "bufferViews" : [
        {
            "buffer" : 0,
            "byteLength" : 19020,
            "byteOffset" : 0
        },
        {
            "buffer" : 0,
            "byteLength" : 19020,
            "byteOffset" : 19020
        },
        {
            "buffer" : 0,
            "byteLength" : 12680,
            "byteOffset" : 38040
        },
        {
            "buffer" : 0,
            "byteLength" : 5220,
            "byteOffset" : 50720
        },
        {
            "buffer" : 0,
            "byteLength" : 9715,
            "byteOffset" : 55940
        },
        {
            "buffer" : 0,
            "byteLength" : 6000,
            "byteOffset" : 65656
        },
        {
            "buffer" : 0,
            "byteLength" : 6000,
            "byteOffset" : 71656
        },
        {
            "buffer" : 0,
            "byteLength" : 4000,
            "byteOffset" : 77656
        },
        {
            "buffer" : 0,
            "byteLength" : 1212,
            "byteOffset" : 81656
        },
        {
            "buffer" : 0,
            "byteLength" : 2880,
            "byteOffset" : 82868
        },
        {
            "buffer" : 0,
            "byteLength" : 2880,
            "byteOffset" : 85748
        },
        {
            "buffer" : 0,
            "byteLength" : 1920,
            "byteOffset" : 88628
        },
        {
            "buffer" : 0,
            "byteLength" : 720,
            "byteOffset" : 90548
        },
        {
            "buffer" : 0,
            "byteLength" : 14441,
            "byteOffset" : 91268
        },
        {
            "buffer" : 0,
            "byteLength" : 192,
            "byteOffset" : 105712
        },
        {
            "buffer" : 0,
            "byteLength" : 192,
            "byteOffset" : 105904
        },
        {
            "buffer" : 0,
            "byteLength" : 128,
            "byteOffset" : 106096
        },
        {
            "buffer" : 0,
            "byteLength" : 72,
            "byteOffset" : 106224
        },
        {
            "buffer" : 0,
            "byteLength" : 12288,
            "byteOffset" : 106296
        },
        {
            "buffer" : 0,
            "byteLength" : 480,
            "byteOffset" : 118584
        },
        {
            "buffer" : 0,
            "byteLength" : 480,
            "byteOffset" : 119064
        },
        {
            "buffer" : 0,
            "byteLength" : 320,
            "byteOffset" : 119544
        },
        {
            "buffer" : 0,
            "byteLength" : 132,
            "byteOffset" : 119864
        },
        {
            "buffer" : 0,
            "byteLength" : 9295,
            "byteOffset" : 119996
        },
        {
            "buffer" : 0,
            "byteLength" : 2304,
            "byteOffset" : 129292
        },
        {
            "buffer" : 0,
            "byteLength" : 2304,
            "byteOffset" : 131596
        },
        {
            "buffer" : 0,
            "byteLength" : 1536,
            "byteOffset" : 133900
        },
        {
            "buffer" : 0,
            "byteLength" : 576,
            "byteOffset" : 135436
        },
        {
            "buffer" : 0,
            "byteLength" : 960,
            "byteOffset" : 136012
        },
        {
            "buffer" : 0,
            "byteLength" : 960,
            "byteOffset" : 136972
        },
        {
            "buffer" : 0,
            "byteLength" : 640,
            "byteOffset" : 137932
        },
        {
            "buffer" : 0,
            "byteLength" : 240,
            "byteOffset" : 138572
        },
        {
            "buffer" : 0,
            "byteLength" : 180528,
            "byteOffset" : 138812
        },
        {
            "buffer" : 0,
            "byteLength" : 180528,
            "byteOffset" : 319340
        },
        {
            "buffer" : 0,
            "byteLength" : 120352,
            "byteOffset" : 499868
        },
        {
            "buffer" : 0,
            "byteLength" : 46536,
            "byteOffset" : 620220
        },
        {
            "buffer" : 0,
            "byteLength" : 35882,
            "byteOffset" : 666756
        }
    ],
    "samplers" : [
        {
            "magFilter" : 9729,
            "minFilter" : 9987
        }
    ],
    "buffers" : [
        {
            "byteLength" : 702640,
            "uri" : "data:application/octet-stream;base64,"
        }
    ]
}
