{
    "asset" : {
        "generator" : "Khronos glTF Blender I/O v3.2.43",
        "version" : "2.0"
    },
    "scene" : 0,
    "scenes" : [
        {
            "name" : "Scene",
            "nodes" : [
                0,
                1
            ]
        }
    ],
    "nodes" : [
        {
            "mesh" : 0,
            "name" : "Cube"
        },
        {
            "mesh" : 1,
            "name" : "CanLight",
            "translation" : [
                0,
                10,
                0
            ]
        }
    ],
    "materials" : [
        {
            "doubleSided" : true,
            "name" : "Room6White",
            "pbrMetallicRoughness" : {
                "baseColorTexture" : {
                    "index" : 0
                },
                "metallicFactor" : 0,
                "roughnessFactor" : 0.4000000059604645
            }
        },
        {
            "doubleSided" : true,
            "name" : "Room6Black",
            "pbrMetallicRoughness" : {
                "baseColorTexture" : {
                    "index" : 1
                },
                "metallicFactor" : 0,
                "roughnessFactor" : 0.5
            }
        },
        {
            "doubleSided" : true,
            "name" : "Room6Metal",
            "pbrMetallicRoughness" : {
                "baseColorTexture" : {
                    "index" : 2
                },
                "metallicFactor" : 0,
                "roughnessFactor" : 0.5
            }
        },
        {
            "doubleSided" : true,
            "name" : "Room6Railing",
            "pbrMetallicRoughness" : {
                "baseColorTexture" : {
                    "index" : 3
                },
                "metallicFactor" : 0,
                "roughnessFactor" : 0.5
            }
        },
        {
            "doubleSided" : true,
            "name" : "Material",
            "pbrMetallicRoughness" : {
                "baseColorFactor" : [
                    0.800000011920929,
                    0.800000011920929,
                    0.800000011920929,
                    1
                ],
                "metallicFactor" : 0,
                "roughnessFactor" : 0.5
            }
        }
    ],
    "meshes" : [
        {
            "name" : "Cube",
            "primitives" : [
                {
                    "attributes" : {
                        "POSITION" : 0,
                        "NORMAL" : 1,
                        "TEXCOORD_0" : 2
                    },
                    "indices" : 3,
                    "material" : 0
                },
                {
                    "attributes" : {
                        "POSITION" : 4,
                        "NORMAL" : 5,
                        "TEXCOORD_0" : 6
                    },
                    "indices" : 7,
                    "material" : 1
                },
                {
                    "attributes" : {
                        "POSITION" : 8,
                        "NORMAL" : 9,
                        "TEXCOORD_0" : 10
                    },
                    "indices" : 11,
                    "material" : 2
                },
                {
                    "attributes" : {
                        "POSITION" : 12,
                        "NORMAL" : 13,
                        "TEXCOORD_0" : 14
                    },
                    "indices" : 15,
                    "material" : 3
                }
            ]
        },
        {
            "name" : "Plane",
            "primitives" : [
                {
                    "attributes" : {
                        "POSITION" : 16,
                        "NORMAL" : 17,
                        "TEXCOORD_0" : 18
                    },
                    "indices" : 19,
                    "material" : 4
                }
            ]
        }
    ],
    "textures" : [
        {
            "sampler" : 0,
            "source" : 0
        },
        {
            "sampler" : 0,
            "source" : 1
        },
        {
            "sampler" : 0,
            "source" : 2
        },
        {
            "sampler" : 0,
            "source" : 3
        }
    ],
    "images" : [
        {
            "bufferView" : 4,
            "mimeType" : "image/png",
            "name" : "brick_large_gray"
        },
        {
            "bufferView" : 9,
            "mimeType" : "image/png",
            "name" : "brick_rough_tan"
        },
        {
            "bufferView" : 14,
            "mimeType" : "image/png",
            "name" : "metal_rusty_dark"
        },
        {
            "bufferView" : 19,
            "mimeType" : "image/png",
            "name" : "railing"
        }
    ],
    "accessors" : [
        {
            "bufferView" : 0,
            "componentType" : 5126,
            "count" : 148,
            "max" : [
                4,
                816.322998046875,
                4
            ],
            "min" : [
                -4,
                -900,
                -262
            ],
            "type" : "VEC3"
        },
        {
            "bufferView" : 1,
            "componentType" : 5126,
            "count" : 148,
            "type" : "VEC3"
        },
        {
            "bufferView" : 2,
            "componentType" : 5126,
            "count" : 148,
            "type" : "VEC2"
        },
        {
            "bufferView" : 3,
            "componentType" : 5123,
            "count" : 282,
            "type" : "SCALAR"
        },
        {
            "bufferView" : 5,
            "componentType" : 5126,
            "count" : 3856,
            "max" : [
                80.00000762939453,
                810,
                -19.999984741210938
            ],
            "min" : [
                -80.00000762939453,
                -900,
                -240.00001525878906
            ],
            "type" : "VEC3"
        },
        {
            "bufferView" : 6,
            "componentType" : 5126,
            "count" : 3856,
            "type" : "VEC3"
        },
        {
            "bufferView" : 7,
            "componentType" : 5126,
            "count" : 3856,
            "type" : "VEC2"
        },
        {
            "bufferView" : 8,
            "componentType" : 5123,
            "count" : 6840,
            "type" : "SCALAR"
        },
        {
            "bufferView" : 10,
            "componentType" : 5126,
            "count" : 728,
            "max" : [
                0.3603875935077667,
                10,
                -4.6100287437438965
            ],
            "min" : [
                -0.4000000059604645,
                0,
                -255.3899688720703
            ],
            "type" : "VEC3"
        },
        {
            "bufferView" : 11,
            "componentType" : 5126,
            "count" : 728,
            "type" : "VEC3"
        },
        {
            "bufferView" : 12,
            "componentType" : 5126,
            "count" : 728,
            "type" : "VEC2"
        },
        {
            "bufferView" : 13,
            "componentType" : 5123,
            "count" : 1092,
            "type" : "SCALAR"
        },
        {
            "bufferView" : 15,
            "componentType" : 5126,
            "count" : 48,
            "max" : [
                4,
                41,
                4
            ],
            "min" : [
                -4,
                -30,
                -220
            ],
            "type" : "VEC3"
        },
        {
            "bufferView" : 16,
            "componentType" : 5126,
            "count" : 48,
            "type" : "VEC3"
        },
        {
            "bufferView" : 17,
            "componentType" : 5126,
            "count" : 48,
            "type" : "VEC2"
        },
        {
            "bufferView" : 18,
            "componentType" : 5123,
            "count" : 72,
            "type" : "SCALAR"
        },
        {
            "bufferView" : 20,
            "componentType" : 5126,
            "count" : 91,
            "max" : [
                0.3912838101387024,
                -0.0016441717743873596,
                0.3716673254966736
            ],
            "min" : [
                -0.3912838101387024,
                -0.24164462089538574,
                -0.39127975702285767
            ],
            "type" : "VEC3"
        },
        {
            "bufferView" : 21,
            "componentType" : 5126,
            "count" : 91,
            "type" : "VEC3"
        },
        {
            "bufferView" : 22,
            "componentType" : 5126,
            "count" : 91,
            "type" : "VEC2"
        },
        {
            "bufferView" : 23,
            "componentType" : 5123,
            "count" : 141,
            "type" : "SCALAR"
        }
    ],
    "bufferViews" : [
        {
            "buffer" : 0,
            "byteLength" : 1776,
            "byteOffset" : 0
        },
        {
            "buffer" : 0,
            "byteLength" : 1776,
            "byteOffset" : 1776
        },
        {
            "buffer" : 0,
            "byteLength" : 1184,
            "byteOffset" : 3552
        },
        {
            "buffer" : 0,
            "byteLength" : 564,
            "byteOffset" : 4736
        },
        {
            "buffer" : 0,
            "byteLength" : 32141,
            "byteOffset" : 5300
        },
        {
            "buffer" : 0,
            "byteLength" : 46272,
            "byteOffset" : 37444
        },
        {
            "buffer" : 0,
            "byteLength" : 46272,
            "byteOffset" : 83716
        },
        {
            "buffer" : 0,
            "byteLength" : 30848,
            "byteOffset" : 129988
        },
        {
            "buffer" : 0,
            "byteLength" : 13680,
            "byteOffset" : 160836
        },
        {
            "buffer" : 0,
            "byteLength" : 15913,
            "byteOffset" : 174516
        },
        {
            "buffer" : 0,
            "byteLength" : 8736,
            "byteOffset" : 190432
        },
        {
            "buffer" : 0,
            "byteLength" : 8736,
            "byteOffset" : 199168
        },
        {
            "buffer" : 0,
            "byteLength" : 5824,
            "byteOffset" : 207904
        },
        {
            "buffer" : 0,
            "byteLength" : 2184,
            "byteOffset" : 213728
        },
        {
            "buffer" : 0,
            "byteLength" : 9296,
            "byteOffset" : 215912
        },
        {
            "buffer" : 0,
            "byteLength" : 576,
            "byteOffset" : 225208
        },
        {
            "buffer" : 0,
            "byteLength" : 576,
            "byteOffset" : 225784
        },
        {
            "buffer" : 0,
            "byteLength" : 384,
            "byteOffset" : 226360
        },
        {
            "buffer" : 0,
            "byteLength" : 144,
            "byteOffset" : 226744
        },
        {
            "buffer" : 0,
            "byteLength" : 171,
            "byteOffset" : 226888
        },
        {
            "buffer" : 0,
            "byteLength" : 1092,
            "byteOffset" : 227060
        },
        {
            "buffer" : 0,
            "byteLength" : 1092,
            "byteOffset" : 228152
        },
        {
            "buffer" : 0,
            "byteLength" : 728,
            "byteOffset" : 229244
        },
        {
            "buffer" : 0,
            "byteLength" : 282,
            "byteOffset" : 229972
        }
    ],
    "samplers" : [
        {
            "magFilter" : 9729,
            "minFilter" : 9987
        }
    ],
    "buffers" : [
        {
            "byteLength" : 230256,
            "uri" : "data:application/octet-stream;base64,"
        }
    ]
}
